<?xml version="1.0" standalone="no"?>
<!DOCTYPE svg PUBLIC "-//W3C//DTD SVG 20010904//EN"
 "http://www.w3.org/TR/2001/REC-SVG-20010904/DTD/svg10.dtd">
<svg version="1.0" xmlns="http://www.w3.org/2000/svg"
 width="380.000000pt" height="378.000000pt" viewBox="0 0 380.000000 378.000000"
 preserveAspectRatio="xMidYMid meet">
<metadata>
Created by potrace 1.14, written by Peter Selinger 2001-2017
</metadata>
<g transform="translate(0.000000,378.000000) scale(0.100000,-0.100000)"
fill="#000000" stroke="none">
<path d="M1640 3633 c-649 -102 -1181 -554 -1385 -1176 -65 -201 -77 -284 -78
-542 -1 -212 1 -240 26 -356 61 -288 167 -522 332 -734 251 -321 601 -540
1000 -625 128 -28 420 -38 560 -20 579 72 1069 426 1325 955 177 366 224 772
135 1172 -95 425 -354 799 -730 1052 -199 135 -419 223 -665 266 -79 14 -447
20 -520 8z m489 -597 c461 -100 808 -448 901 -904 22 -111 27 -312 10 -419
-39 -238 -151 -456 -326 -630 -318 -318 -770 -422 -1200 -278 -283 95 -527
313 -660 590 -268 556 -59 1218 480 1520 113 63 260 112 405 135 80 13 303 5
390 -14z"/>
<path d="M1164 2546 c-18 -14 -19 -32 -19 -646 0 -614 1 -632 19 -646 17 -12
133 -14 737 -14 657 0 718 1 730 17 21 25 15 481 -7 503 -11 12 -48 16 -170
18 l-155 3 3 122 3 122 158 5 c125 4 160 8 167 20 5 8 10 119 10 247 0 197 -2
234 -16 247 -14 14 -94 16 -728 16 -599 0 -715 -2 -732 -14z m1327 -145 c15
-19 19 -39 19 -111 0 -84 -1 -90 -26 -109 -21 -17 -41 -21 -93 -21 -77 0 -86
5 -89 44 -4 54 -26 67 -111 64 -103 -4 -101 3 -101 -279 0 -289 9 -273 -155
-277 -128 -4 -172 6 -180 42 -3 11 -6 126 -7 254 -3 272 1 262 -107 262 -107
0 -101 22 -101 -366 0 -289 2 -335 16 -348 13 -14 61 -16 369 -16 340 0 355 1
365 19 5 11 10 33 10 50 l0 31 89 0 c115 0 121 -6 121 -135 0 -145 70 -130
-615 -130 -569 0 -587 1 -601 19 -12 17 -14 102 -14 505 0 267 4 491 8 498 19
30 68 32 620 30 l564 -2 19 -24z"/>
</g>
</svg>
